<?xml version="1.0" encoding="utf-8"?>
<!-- Generator: Adobe Illustrator 27.1.1, SVG Export Plug-In . SVG Version: 6.00 Build 0)  -->
<svg version="1.1" id="Layer_1" xmlns="http://www.w3.org/2000/svg" xmlns:xlink="http://www.w3.org/1999/xlink" x="0px" y="0px"
	 viewBox="0 0 512 512" style="enable-background:new 0 0 512 512;" xml:space="preserve">
<style type="text/css">
	.st0{fill:#007782;}
</style>
<g>
	<path class="st0" d="M102.66,173.32c-1.76,0-3.89,1.48-9.64,6.49c-2.04,0.74-4.27,0.19-6.87,4.18
		C71.5,205.04,60.1,283.77,50.35,306.5c-1.95-9.83-6.03-73.83-7.61-91.35c-0.19-3.24,0.19-7.33,0.19-9.73
		c0-16.14-3.52-24.3-19.66-24.3c-8.16,0-16.22,2.97-20.49,8.35C0.75,192.24,0,194.29,0,199.29c0,33.48,7.98,88.38,16.88,124.18
		c2.78,11.23,12.8,13.36,22.26,13.36c4.45,0,8.9-0.56,15.21-3.71c21.88-10.67,27.73-39.79,33.38-68.07
		c1.02-5.1,6.12-29.77,8.53-42.75c3.24-17.72,6.95-37.75,9.18-45.07C106.18,175,104.79,173.32,102.66,173.32L102.66,173.32z
		 M474.35,253.45c-2.96,22.16-14.28,60.1-26.9,60.1c-3.61,0-5.47-4.18-5.47-9.28C441.99,289.71,451.81,260.59,474.35,253.45z
		 M364.27,278.4c2.87-12.98,15.3-32.83,26.43-32.83c2.04,0,3.15,1.3,2.87,4.45C392.93,259.85,385.6,276.17,364.27,278.4z
		 M512,183.34c0-3.89-2.41-7.32-7.88-7.32c-4.45,0-9.64,2.22-12.89,5.01c-3.89-0.93-9.09,2.04-9.73,5.56
		c-3.34,15.67-4.82,31.99-6.67,45.44c-22.44,2.04-39.51,14.47-47.86,34.78c-1.38,3.35-2.99,6.6-4.82,9.73
		c-11.87,20.22-26.71,31.9-41.27,31.9c-10.67,0-16.79-7.51-17.53-17.72c3.81,0.93,7.42,1.39,10.76,1.39
		c24.11,0,36.35-22.81,36.35-38.21c0-14.93-10.01-22.53-24.85-22.53c-27.08,0.19-49.61,32.46-49.61,61.95
		c0,20.96,9.37,37.56,30.7,37.56c16.5,0,39.32-9.09,54.8-32.46c-1.02,16.6,3.34,32.83,17.53,34.41c7.98,0.74,22.44-4.27,32.08-23.93
		c0.74,16.32,5.93,24.21,10.11,24.21c7.51,0,12.24-2.69,18.08-2.97c1.86-0.09,2.41-1.76,2.41-3.24c0-2.41-2.78-11.32-2.78-24.12
		c0-19.56,3.89-50.16,12.15-112.58C511.44,188.72,512,185.66,512,183.34L512,183.34z M141.05,223.31c7.24,0,13.17-5.93,13.17-12.42
		c0-8.53-2.6-16.69-12.24-16.69c-6.58,0-17.99,7.41-17.99,13.82C123.99,215.52,132.24,223.31,141.05,223.31z M338.3,218.12
		c-4.17-0.83-8.72-0.93-13.36-0.93c0.19-3.24-0.09-9.46,0-14.93c0-0.84,0.37-2.32,0.37-4.18c0-1.85-0.37-3.89-1.67-5.75
		c0.46-1.3,0.74-2.41,0.74-3.24c0-4.45-6.58-6.12-12.79-6.12c-5.38,0-10.39,1.94-12.15,7.78c-2.87,10.3-3.71,14.74-4.45,25.5
		c-6.5,0.37-19.1,0.47-18.83,4.45c0.74,10.3,10.67,13.63,17.8,13.82c-0.83,28.28-24.48,74.1-31.81,74.1c-1.39,0-1.95-2.22-1.95-6.96
		c0-9.27,1.95-21.7,1.95-34.87c0-8.16-0.84-15.58-3.34-20.31c-3.16-5.66-13.54-8.44-21.7-8.44c-3.16,0-5.75,0.37-7.79,1.11
		c-13.54,5.48-24.95,36.27-29.21,43.13c2.04-18.64,5.1-33.2,5.1-40.8c0-4.27-3.8-8.07-8.07-8.07c-1.67,0-3.15,0.56-4.54,1.85
		c-6.13,2.23-14.29,0-15.67,8.72c-0.37,2.32-0.83,5.1-1.02,8.26c-1.49,22.63-24.12,64.54-35.7,64.54c-2.87,0-3.53-3.71-3.53-8.44
		c0-15.77,8.16-48.97,8.35-55.64c0.47-1.02,0.74-2.23,0.74-3.24c0-6.31-7.41-12.43-15.02-12.43c-2.22,0-3.8-0.46-5.56-0.46
		c-1.11,0-2.32,0.19-3.61,1.02c-8.44,5.38-15.85,36.17-15.85,55.09c0,20.87,12.15,37.56,31.44,37.56c13.82,0,25.5-12.62,35.42-30.05
		c0,2.69-0.56,15.76,0,23.18c0.37,5.1,5.66,2.87,12.06,5.47c2.41,2.04,4.63,2.97,6.58,2.97c3.24,0,5.75-2.87,7.61-7.88
		c7.61-20.86,25.97-67.7,31.16-67.7c3.89,0-0.09,30.14-0.09,45.07c0,8.53,0.83,15.86,3.8,19.01c5.47,5.75,11.31,8.53,17.44,8.53
		c13.54,0,27.82-14.47,39.5-41.36c-0.74,11.5-0.83,15.03-0.83,19.01c0,6.67,0.37,14.1,1.3,19.47c0.56,2.6,0.84,4.45,3.15,6.12
		c3.15,1.76,6.03,2.78,7.61,3.9c3.61,1.76,3.34,2.69,8.35,2.69c1.76,0,4.18-1.67,4.55-5.66c4.45-44.05,9.09-98.39,9.09-98.39
		c2.97-0.1,11.41-2.23,19.29-3.16c3.34-0.37,7.33-2.41,7.33-4.82C350.45,224.24,345.17,219.6,338.3,218.12z"/>
</g>
</svg>
